<?xml version="1.0" encoding="utf-8"?>
<svg xmlns="http://www.w3.org/2000/svg" id="_1" style="enable-background:new 0 0 79.6 73.5;" version="1.1" viewBox="0 0 79.6 73.5" x="0px" y="0px">
<g id="Group_847" transform="translate(0 0)">
	<path d="M13.5,19.1l-1.8,1.8c-0.5,0.6-0.5,1.4,0,2c0.3,0.3,0.6,0.4,1,0.4h11.3c0.8,0,1.4-0.6,1.4-1.4c0,0,0,0,0,0&#xD;&#xA;		V10.6c0-0.8-0.6-1.4-1.4-1.4c-0.4,0-0.7,0.1-1,0.4l-1.8,1.8L13.7,4c-0.5-0.5-1.4-0.6-2,0c0,0,0,0,0,0L6,9.6c-0.5,0.5-0.6,1.4,0,2&#xD;&#xA;		c0,0,0,0,0,0L13.5,19.1z M12.7,7l7.4,7.4c0.5,0.5,1.4,0.6,2,0c0,0,0,0,0,0l0.4-0.4v6.5h-6.5l0.4-0.4c0.5-0.5,0.6-1.4,0-2&#xD;&#xA;		c0,0,0,0,0,0L9,10.6L12.7,7z" id="Path_396"/>
	<path d="M54.9,23.3h11.3c0.8,0,1.4-0.6,1.4-1.4c0-0.4-0.1-0.7-0.4-1l-1.8-1.8l7.4-7.4c0.5-0.5,0.6-1.4,0-2&#xD;&#xA;		c0,0,0,0,0,0L67.1,4c-0.5-0.5-1.4-0.6-2,0c0,0,0,0,0,0l-7.4,7.4l-1.8-1.8c-0.6-0.5-1.4-0.5-2,0c-0.3,0.3-0.4,0.6-0.4,1v11.3&#xD;&#xA;		C53.5,22.7,54.1,23.3,54.9,23.3C54.9,23.3,54.9,23.3,54.9,23.3z M56.3,14l0.4,0.4c0.5,0.5,1.4,0.6,2,0c0,0,0,0,0,0L66.1,7l3.6,3.6&#xD;&#xA;		l-7.4,7.4c-0.5,0.5-0.6,1.4,0,2c0,0,0,0,0,0l0.4,0.4h-6.5L56.3,14z" id="Path_397"/>
	<path d="M23.9,51.4H12.7c-0.8,0-1.4,0.6-1.4,1.4c0,0.4,0.1,0.7,0.4,1l1.8,1.8L6,63.1c-0.5,0.5-0.6,1.4,0,2&#xD;&#xA;		c0,0,0,0,0,0l5.6,5.6c0.5,0.5,1.4,0.5,2,0c0,0,0,0,0,0l7.4-7.4l1.8,1.8c0.6,0.5,1.4,0.5,2,0c0.3-0.3,0.4-0.6,0.4-1V52.8&#xD;&#xA;		C25.3,52.1,24.7,51.4,23.9,51.4C23.9,51.4,23.9,51.4,23.9,51.4z M22.5,60.7l-0.4-0.4c-0.5-0.5-1.4-0.6-2,0c0,0,0,0,0,0l-7.4,7.4&#xD;&#xA;		L9,64.1l7.4-7.4c0.5-0.5,0.6-1.4,0-2c0,0,0,0,0,0l-0.4-0.4h6.5L22.5,60.7z" id="Path_398"/>
	<path d="M65.3,55.7l1.8-1.8c0.5-0.6,0.5-1.4,0-2c-0.3-0.3-0.6-0.4-1-0.4H54.9c-0.8,0-1.4,0.6-1.4,1.4c0,0,0,0,0,0&#xD;&#xA;		v11.3c0,0.8,0.6,1.4,1.4,1.4c0.4,0,0.7-0.1,1-0.4l1.8-1.8l7.4,7.4c0.5,0.5,1.4,0.5,2,0c0,0,0,0,0,0l5.6-5.6c0.5-0.5,0.6-1.4,0-2&#xD;&#xA;		c0,0,0,0,0,0L65.3,55.7z M66.1,67.7l-7.4-7.4c-0.5-0.5-1.4-0.5-2,0c0,0,0,0,0,0l-0.4,0.4v-6.5h6.5l-0.4,0.4c-0.5,0.5-0.6,1.4,0,2&#xD;&#xA;		c0,0,0,0,0,0l7.4,7.4L66.1,67.7z" id="Path_399"/>
	<path d="M39.4,23.3c-7.8,0-14.1,6.3-14.1,14.1s6.3,14.1,14.1,14.1c7.8,0,14.1-6.3,14.1-14.1&#xD;&#xA;		C53.5,29.6,47.2,23.3,39.4,23.3z M39.4,48.6c-6.2,0-11.3-5-11.3-11.3c0-6.2,5-11.3,11.3-11.3c6.2,0,11.3,5,11.3,11.3&#xD;&#xA;		C50.7,43.6,45.6,48.6,39.4,48.6z" id="Path_400"/>
</g>
</svg>