<?xml version="1.0" encoding="utf-8"?>
<svg xmlns="http://www.w3.org/2000/svg" id="_1" style="enable-background:new 0 0 38.4 35.6;" version="1.1" viewBox="0 0 38.4 35.6" x="0px" y="0px">
<style type="text/css">
	.st0{fill:#2A2A2A;}
</style>
<g id="Group_91" transform="translate(132 -291)">
	<path class="st0" d="M-108.6,306h-6.7v6.7h6.7V306z M-109.6,311.8h-4.9V307h4.9V311.8z" id="Path_106"/>
	<path class="st0" d="M-101.9,304.1v-1h-2v-2h-2v-1.9h-1v2h-1v-2h-1v2h-1v-2h-1v2h-1v-2h-1v2h-1v-2h-1v2h-1v-2h-1v2&#xD;&#xA;		h-1v-2h-1v2h-2v1.9h-1.9v1h2v1h-2v1h2v1h-2v1h2v1h-2v1h2v1h-2v1h2v1h-2v1h2v1h-2v1h2v2h2v2h1v-2h1v2h1v-2h1v2h1v-2h1v2h1v-2h1v2h1&#xD;&#xA;		v-2h1v2h1v-2h1v2h1v-2h2v-2.2h2v-1h-2v-1.4h2v-0.9h-2v-1h2v-1h-2v-1h2v-1h-2v-1h2v-1h-2v-1h2v-0.8h-2v-0.7L-101.9,304.1z&#xD;&#xA;		 M-104.8,316.7h-14.6v-14.5h14.5L-104.8,316.7L-104.8,316.7z" id="Path_107"/>
</g>
</svg>