<?xml version="1.0" encoding="utf-8"?>
<svg xmlns="http://www.w3.org/2000/svg" id="_1" style="enable-background:new 0 0 38.4 35.6;" version="1.1" viewBox="0 0 38.4 35.6" x="0px" y="0px">
<style type="text/css">
	.st0{fill:#2A2A2A;}
</style>
<g>
	<path class="st0" d="M25.1,5.3H13.4c-1.1,0-2,0.9-2,2v22.4c0,1.1,0.9,2,2,2h11.7c1.1,0,2-0.9,2-2V7.3&#xD;&#xA;		C27.1,6.2,26.2,5.3,25.1,5.3z M12.8,9.2h13v0.7h-13L12.8,9.2z M13.4,6.6h11.7c0.4,0,0.7,0.3,0.7,0.7v0.7h-13V7.3&#xD;&#xA;		C12.8,6.9,13.1,6.6,13.4,6.6L13.4,6.6z M25.1,30.3H13.4c-0.4,0-0.7-0.3-0.7-0.7V11.2h13v18.5C25.8,30,25.5,30.3,25.1,30.3&#xD;&#xA;		C25.1,30.3,25.1,30.3,25.1,30.3L25.1,30.3z" id="Path_244"/>
	<path class="st0" d="M19.2,19.1c1.1,0,2-0.9,2-2s-0.9-2-2-2c-1.1,0-2,0.9-2,2C17.2,18.2,18.1,19.1,19.2,19.1z&#xD;&#xA;		 M19.2,16.5c0.4,0,0.7,0.3,0.7,0.7c0,0.4-0.3,0.7-0.7,0.7c-0.4,0-0.7-0.3-0.7-0.7v0C18.6,16.8,18.8,16.5,19.2,16.5z" id="Path_245"/>
	<path class="st0" d="M21.8,23.1h-5.3c-0.4,0-0.7,0.3-0.7,0.7c0,0.4,0.3,0.7,0.7,0.7l0,0h5.3c0.4,0,0.7-0.3,0.7-0.7&#xD;&#xA;		C22.5,23.4,22.2,23.1,21.8,23.1z" id="Path_246"/>
	<path class="st0" d="M21.8,25.1h-5.3c-0.4,0-0.7,0.3-0.7,0.7c0,0.4,0.3,0.7,0.7,0.7l0,0h5.3c0.4,0,0.7-0.3,0.7-0.7&#xD;&#xA;		C22.5,25.4,22.2,25.1,21.8,25.1z" id="Path_247"/>
	<path class="st0" d="M21.8,27h-5.3c-0.4,0-0.7,0.3-0.7,0.7c0,0.4,0.3,0.7,0.7,0.7l0,0h5.3c0.4,0,0.7-0.3,0.7-0.7&#xD;&#xA;		C22.5,27.3,22.2,27,21.8,27z" id="Path_248"/>
</g>
</svg>