<?xml version="1.0" encoding="utf-8"?>
<svg xmlns="http://www.w3.org/2000/svg" id="_1" style="enable-background:new 0 0 38.4 35.6;" version="1.1" viewBox="0 0 38.4 35.6" x="0px" y="0px">
<style type="text/css">
	.st0{fill:#2A2A2A;}
</style>
<g id="Group_96" transform="translate(46.466 -129)">
	<path class="st0" d="M-20.4,134.7h-14.7c-1.2,0-2.1,0.9-2.1,2.1v20c0,1.2,0.9,2.1,2.1,2.1h14.7&#xD;&#xA;		c1.2,0,2.1-0.9,2.1-2.1v-20C-18.3,135.6-19.2,134.7-20.4,134.7z M-35.1,135.7h14.7c0.6,0,1.1,0.5,1.1,1.1v17.9h-16.8v-17.9&#xD;&#xA;		C-36.1,136.2-35.7,135.7-35.1,135.7L-35.1,135.7z M-20.4,157.8h-14.7c-0.6,0-1.1-0.5-1.1-1.1v-1.1h16.8v1.1&#xD;&#xA;		C-19.3,157.4-19.8,157.8-20.4,157.8L-20.4,157.8z" id="Path_108"/>
	<path class="st0" d="M-27.7,152c0.8,0,1.6-0.1,2.4-0.4c0.3,0.5,0.6,0.9,0.9,1.3c0.4,0.4,1,0.6,1.5,0.6&#xD;&#xA;		c0.6,0,1.1-0.2,1.5-0.6c0.4-0.4,0.6-1,0.6-1.5c0-0.6-0.2-1.1-0.6-1.5c-1-0.8-2.2-1.5-3.3-2.1c-0.5-0.4-1.3-0.4-1.8,0.1&#xD;&#xA;		c-0.5,0.5-0.5,1.3-0.1,1.8c0.1,0.2,0.3,0.6,0.6,1.1c-0.6,0.2-1.2,0.3-1.8,0.3c-3.2,0-5.8-2.6-5.8-5.8c0-3.2,2.6-5.8,5.8-5.8&#xD;&#xA;		c3.2,0,5.8,2.6,5.8,5.8c0,0.9-0.2,1.7-0.6,2.5l0.9,0.5c0.4-0.9,0.7-1.9,0.7-3c0-3.8-3.1-6.8-6.8-6.8c-3.8,0-6.8,3.1-6.8,6.8&#xD;&#xA;		C-34.6,149-31.5,152-27.7,152z M-25.7,148.5c0,0,0.1-0.1,0.1-0.1c0.1,0,0.3,0.1,0.4,0.2l0,0c1.1,0.6,2.1,1.2,3.1,2&#xD;&#xA;		c0.2,0.2,0.3,0.5,0.3,0.8c0,0.3-0.1,0.6-0.3,0.8c-0.4,0.4-1.1,0.4-1.6,0c-0.7-1-1.4-2-2-3.1C-25.8,148.7-25.8,148.6-25.7,148.5&#xD;&#xA;		L-25.7,148.5z" id="Path_109"/>
	<path class="st0" d="M-29.8,145.2c0,1.2,0.9,2.1,2.1,2.1c1.2,0,2.1-0.9,2.1-2.1c0-1.2-0.9-2.1-2.1-2.1&#xD;&#xA;		C-28.9,143.1-29.8,144-29.8,145.2z M-26.7,145.2c0,0.6-0.5,1.1-1.1,1.1c-0.6,0-1.1-0.5-1.1-1.1c0-0.6,0.5-1.1,1.1-1.1&#xD;&#xA;		C-27.1,144.1-26.7,144.6-26.7,145.2z" id="Path_110"/>
	<rect class="st0" height="0.9" id="Rectangle_316" width="1.7" x="-34.7" y="156.3"/>
	<rect class="st0" height="0.9" id="Rectangle_317" width="1.7" x="-32.1" y="156.3"/>
</g>
</svg>