<?xml version="1.0" encoding="utf-8"?>
<svg xmlns="http://www.w3.org/2000/svg" id="_1" style="enable-background:new 0 0 38.4 35.6;" version="1.1" viewBox="0 0 38.4 35.6" x="0px" y="0px">
<style type="text/css">
	.st0{fill:#2A2A2A;}
</style>
<g id="Group_93" transform="translate(209 -52)">
	<g id="Group_60" transform="translate(-209 52)">
		<path class="st0" d="M19.3,30.9c-6.9,0-12.5-5.6-12.6-12.6c0-6.9,5.6-12.5,12.6-12.6c6.9,0,12.5,5.6,12.6,12.6&#xD;&#xA;			C31.9,25.3,26.2,30.9,19.3,30.9z M19.3,7C13.1,7,8,12.1,8,18.3c0,6.3,5.1,11.3,11.3,11.3c6.3,0,11.3-5.1,11.3-11.3&#xD;&#xA;			C30.6,12.1,25.6,7,19.3,7z" id="Path_128"/>
	</g>
	<g id="Group_61" transform="translate(-204.784 59.252)">
		<path class="st0" d="M16,10.9c0,3.5-2.1,5.3-4.7,5.3c-2.7,0-4.6-2.1-4.6-5.1c0-3.2,2-5.3,4.7-5.3&#xD;&#xA;			C14.2,5.8,16,7.9,16,10.9z M8.2,11.1c0,2.2,1.2,4.1,3.2,4.1c2.1,0,3.2-1.9,3.2-4.2c0-2-1.1-4.1-3.2-4.1S8.2,8.8,8.2,11.1z" id="Path_129"/>
		<path class="st0" d="M17.5,14.5c0.7,0.4,1.5,0.7,2.3,0.7c1.3,0,2.1-0.7,2.1-1.7c0-0.9-0.5-1.5-1.9-2&#xD;&#xA;			c-1.7-0.6-2.7-1.4-2.7-2.9c0-1.6,1.3-2.8,3.3-2.8c0.8,0,1.5,0.1,2.2,0.5l-0.4,1.1C22,7,21.3,6.9,20.6,6.9c-1.4,0-1.9,0.8-1.9,1.5&#xD;&#xA;			c0,0.9,0.6,1.4,2,2c1.7,0.7,2.6,1.5,2.6,3c0,1.6-1.2,2.9-3.5,2.9c-0.9,0-1.8-0.2-2.6-0.6L17.5,14.5z" id="Path_130"/>
	</g>
</g>
</svg>