<?xml version="1.0" encoding="utf-8"?>
<svg xmlns="http://www.w3.org/2000/svg" id="_1" style="enable-background:new 0 0 38.4 35.6;" version="1.1" viewBox="0 0 38.4 35.6" x="0px" y="0px">
<style type="text/css">
	.st0{fill:#2A2A2A;}
</style>
<g id="Group_95" transform="translate(161 -51)">
	<path class="st0" d="M-132.3,58.3h-19.5c-0.3,0-0.5,0.2-0.5,0.5v2c-0.3,0-0.5,0.2-0.5,0.5v2.5c0,0.3,0.2,0.5,0.5,0.5&#xD;&#xA;		v1c-0.3,0-0.5,0.2-0.5,0.5v2c0,0.3,0.2,0.5,0.5,0.5v10.5c0,0.3,0.2,0.5,0.5,0.5h19.5c0.3,0,0.5-0.2,0.5-0.5v-20&#xD;&#xA;		C-131.8,58.5-132,58.3-132.3,58.3z M-132.8,78.3h-18.5V67.8c0-0.3-0.2-0.5-0.5-0.5v-1c0.3,0,0.5-0.2,0.5-0.5v-2&#xD;&#xA;		c0-0.3-0.2-0.5-0.5-0.5v-1.5c0.3,0,0.5-0.2,0.5-0.5v-2h18.5V78.3z" id="Path_125"/>
	<path class="st0" d="M-148.8,67.8c0,0.3,0.2,0.5,0.5,0.5h1v1h1v-1h1v1h1v-1h1c0.3,0,0.5-0.2,0.5-0.5v-1h1v-1h-1v-1h1&#xD;&#xA;		v-1h-1v-1c0-0.3-0.2-0.5-0.5-0.5h-1v-1h-1v1h-1v-1h-1v1h-1c-0.3,0-0.5,0.2-0.5,0.5v1h-1v1h1v1h-1v1h1V67.8z M-147.8,63.3h4v4h-4&#xD;&#xA;		V63.3z" id="Path_126"/>
	<rect class="st0" height="0.8" id="Rectangle_328" width="0.8" x="-135.9" y="67.2"/>
	<rect class="st0" height="0.8" id="Rectangle_329" width="0.8" x="-135.9" y="75.1"/>
	<rect class="st0" height="4.7" id="Rectangle_330" width="0.8" x="-135.9" y="69.6"/>
	<rect class="st0" height="0.8" id="Rectangle_331" width="0.8" x="-137.5" y="67.2"/>
	<rect class="st0" height="0.8" id="Rectangle_332" width="0.8" x="-137.5" y="75.1"/>
	<rect class="st0" height="4.7" id="Rectangle_333" width="0.8" x="-137.5" y="69.6"/>
	<path class="st0" d="M-139.8,66.3h4.5c0.3,0,0.5-0.2,0.5-0.5v-3c0-0.3-0.2-0.5-0.5-0.5h-4.5c-0.3,0-0.5,0.2-0.5,0.5&#xD;&#xA;		v3C-140.3,66.1-140,66.3-139.8,66.3z M-139.3,63.3h3.5v2h-3.5V63.3z" id="Path_127"/>
	<rect class="st0" height="0.8" id="Rectangle_334" width="10.3" x="-149.4" y="71.2"/>
	<rect class="st0" height="0.8" id="Rectangle_335" width="10.3" x="-149.4" y="73.5"/>
	<rect class="st0" height="0.8" id="Rectangle_336" width="10.3" x="-149.4" y="75.1"/>
</g>
</svg>