<?xml version="1.0" encoding="utf-8"?>
<svg xmlns="http://www.w3.org/2000/svg" id="_1" style="enable-background:new 0 0 38.4 35.6;" version="1.1" viewBox="0 0 38.4 35.6" x="0px" y="0px">
<style type="text/css">
	.st0{fill:#2A2A2A;}
</style>
<g id="Group_94" transform="translate(184 -137)">
	<path class="st0" d="M-178,157.2l0.5,0.5c0.1,0.1,0.2,0.3,0.2,0.4c0,0.2-0.1,0.3-0.2,0.4l-0.5,0.5v2.8h1.1v2.6h18.4&#xD;&#xA;		v-2.6h1.1v-2.8l-0.5-0.5c-0.2-0.2-0.2-0.5,0-0.7l0.5-0.5v-2.8h-20.4L-178,157.2L-178,157.2z M-177,159.3l0.2-0.2&#xD;&#xA;		c0.3-0.3,0.5-0.7,0.5-1.1c0-0.5-0.2-0.8-0.5-1.1l-0.2-0.2v-1.4h18.4v1.4l-0.2,0.2c-0.6,0.6-0.6,1.6,0,2.2l0.2,0.2v1.4h-1.1v2.6&#xD;&#xA;		h-1.1v-1.1h-1.1v1.1h-1.5v-1.1h-1.1v1.1h-1.5v-1.1h-1.1v1.1h-1.5v-1.1h-1.1v1.1h-1.5v-1.1h-1.1v1.1h-1.5v-1.1h-1.1v1.1h-1.1v-2.6&#xD;&#xA;		h-1.1L-177,159.3z" id="Path_117"/>
	<path class="st0" d="M-171.2,156.4h-3.6v4.2h3.6V156.4z M-172.3,159.6h-1.5v-2.1h1.5V159.6z" id="Path_118"/>
	<path class="st0" d="M-165.9,156.4h-3.6v4.2h3.6V156.4z M-167,159.6h-1.5v-2.1h1.5V159.6z" id="Path_119"/>
	<path class="st0" d="M-160.7,156.4h-3.6v4.2h3.6V156.4z M-161.7,159.6h-1.5v-2.1h1.5V159.6z" id="Path_120"/>
	<path class="st0" d="M-152.8,150.8V148h-20.4v2.8l0.5,0.5c0.2,0.2,0.2,0.5,0,0.7l-0.5,0.5v0.7h1.1v-0.3l0.2-0.2&#xD;&#xA;		c0.6-0.6,0.6-1.6,0-2.2l-0.2-0.2V149h18.4v1.4l-0.2,0.2c-0.6,0.6-0.6,1.6,0,2.2l0.2,0.2v1.4h-1.1v2.1h-1.5v1.1h2.6v-2.1h1.1v-2.8&#xD;&#xA;		l-0.5-0.5c-0.2-0.2-0.2-0.5,0-0.7L-152.8,150.8z" id="Path_121"/>
	<path class="st0" d="M-166.4,153.3v-3.2h-3.6v3.2h1.1v-2.1h1.5v2.1H-166.4z" id="Path_122"/>
	<path class="st0" d="M-161.2,153.3v-3.2h-3.6v3.2h1.1v-2.1h1.5v2.1H-161.2z" id="Path_123"/>
	<path class="st0" d="M-156,153.3v-3.2h-3.6v3.2h1.1v-2.1h1.5v2.1H-156z" id="Path_124"/>
</g>
</svg>