<?xml version="1.0" encoding="utf-8"?>
<svg xmlns="http://www.w3.org/2000/svg" id="_1" style="enable-background:new 0 0 38.4 35.6;" version="1.1" viewBox="0 0 38.4 35.6" x="0px" y="0px">
<style type="text/css">
	.st0{fill:#2A2A2A;}
</style>
<g id="Group_92" transform="translate(61 -294)">
	<path class="st0" d="M-47.1,308.1c-2.6,0-4.7,2.1-4.7,4.7c0,2.6,2.1,4.7,4.7,4.7c2.6,0,4.7-2.1,4.7-4.7&#xD;&#xA;		S-44.6,308.1-47.1,308.1z M-44,314.9c-0.5,0-0.8-0.2-1.2-0.4l-0.6,0.9c0.3,0.2,0.6,0.3,0.9,0.4c-0.6,0.5-1.4,0.7-2.2,0.7&#xD;&#xA;		c-0.4,0-0.6,0-0.9-0.1c-0.1-0.4-0.1-0.8,0-1.2l-1-0.3c-0.1,0.3-0.1,0.6-0.1,1c-0.9-0.6-1.6-1.7-1.6-2.9c0.4-0.2,0.7-0.4,1.2-0.4&#xD;&#xA;		l-0.1-1c-0.4,0-0.6,0.1-0.9,0.2c0.3-1.1,1.1-1.9,2.2-2.4c0.3,0.3,0.6,0.6,0.7,1l0.9-0.4c-0.1-0.3-0.3-0.6-0.5-0.8h0.1&#xD;&#xA;		c1.1,0,2.1,0.5,2.9,1.4c-0.2,0.4-0.4,0.7-0.7,1l0.6,0.8c0.3-0.2,0.5-0.5,0.6-0.7c0.2,0.4,0.2,0.8,0.2,1.2&#xD;&#xA;		C-43.4,313.6-43.6,314.3-44,314.9L-44,314.9z" id="Path_114"/>
	<path class="st0" d="M-47.1,310.8c-1.2,0-2.1,0.9-2.1,2.1s0.9,2.1,2.1,2.1s2.1-0.9,2.1-2.1S-45.9,310.8-47.1,310.8z&#xD;&#xA;		 M-47.1,313.9c-0.6,0-1-0.5-1-1s0.5-1,1-1c0.6,0,1,0.5,1,1C-46,313.5-46.5,313.9-47.1,313.9z" id="Path_115"/>
	<path class="st0" d="M-30.3,303.4c-0.8,0-1.6,0.7-1.6,1.6l0,0v1h-20.2l-2.4,2.4v11.3h3.7v2.1h4.2v-2.1h1.6v2.1h10.6&#xD;&#xA;		v-2.1h2.6v3.2h1v-17.9c0-0.3,0.3-0.6,0.6-0.6h1v-1L-30.3,303.4L-30.3,303.4z M-47.6,320.8h-2.1v-1h2.1V320.8z M-44,319.7h2.1v1H-44&#xD;&#xA;		V319.7z M-38.7,319.7v1h-2.1v-1H-38.7z M-35.6,320.8h-2.1v-1h2.1V320.8z M-53.4,318.7v-9.8l1.8-1.8h19.8v11.6H-53.4z" id="Path_116"/>
	<rect class="st0" height="0.7" id="Rectangle_324" width="5.5" x="-40.2" y="309.3"/>
	<rect class="st0" height="0.7" id="Rectangle_325" width="5.5" x="-40.2" y="311.6"/>
	<rect class="st0" height="1.6" id="Rectangle_326" width="2.3" x="-40.2" y="314.8"/>
	<rect class="st0" height="1.6" id="Rectangle_327" width="2.3" x="-37.1" y="314.8"/>
</g>
</svg>